<?xml version="1.0" encoding="utf-8"?>
<!-- Generator: Adobe Illustrator 19.0.0, SVG Export Plug-In . SVG Version: 6.00 Build 0)  -->
<svg version="1.1" id="Layer_1" xmlns="http://www.w3.org/2000/svg" xmlns:xlink="http://www.w3.org/1999/xlink" x="0px" y="0px"
	 viewBox="0 0 500 500" style="enable-background:new 0 0 500 500;" xml:space="preserve">
<style type="text/css">
	.st0{fill:#E16426;}
</style>
<g id="XMLID_1_">
	<path id="XMLID_13_" class="st0" d="M430.5,270l-44.9-21.7l42.6-19.9c3.3-1.5,5.2-5.6,3-9.4l-4.4-5.1c-2.9-3.1-6-5.4-9.7-3.9
		l-31.6,11.9c-0.7,0.3-1.4,0.3-2.2,0.1l-12.2-3.5c-0.9-0.3-1.9,0-2.6,0.6l-13.1,12.4c-2.9-16.8-9.8-32.3-19.6-45.4l19.1-0.1
		c0.8,0,1.6-0.5,2-1.2l6.8-12.3c0.4-0.6,0.9-1.1,1.6-1.4l31.3-13.4c1.9-0.8,3.1-4.8,2.7-7.4l-1-9.4c-0.8-2.7-4.6-5.1-6.4-4.4
		L344.6,153l16-44.2c1.2-3.4-0.3-7.7-4.6-8.8l-6.7-0.5c-4.2-0.2-8,0.4-9.6,4.1l-13.9,30.8c-0.3,0.7-0.8,1.2-1.5,1.6l-11.1,6.2
		c-0.8,0.5-1.3,1.3-1.4,2.3l-0.5,18.1c-13.4-9.4-29-15.8-46-18.3l13.4-13.7c0.6-0.6,0.8-1.4,0.6-2.2l-3.9-13.5
		c-0.2-0.7-0.2-1.5,0.1-2.1l12.7-31.6c0.8-1.9-1.2-5.6-3.3-7.2l-7.3-5.9c-2.5-1.3-6.8-0.3-7.6,1.4l-21.7,44.9l-19.9-42.6
		c-1.5-3.3-5.6-5.2-9.4-3l-5.1,4.4c-3.1,2.9-5.4,6-3.9,9.7l11.9,31.6c0.3,0.7,0.3,1.4,0.1,2.2l-3.5,12.2c-0.3,0.9,0,1.9,0.6,2.6
		l12.4,13.1c-16.8,2.9-32.3,9.8-45.4,19.6l-0.2-19.1c0-0.8-0.5-1.6-1.2-2l-12.3-6.8c-0.6-0.4-1.1-0.9-1.4-1.6l-13.4-31.3
		c-0.8-1.9-4.8-3.1-7.4-2.7l-9.4,1c-2.7,0.8-5.1,4.6-4.4,6.4l16.4,47.1l-44.2-16c-3.4-1.2-7.7,0.3-8.8,4.6l-0.5,6.7
		c-0.2,4.2,0.4,8,4.1,9.6l30.8,13.9c0.7,0.3,1.2,0.8,1.6,1.5l6.2,11.1c0.5,0.8,1.3,1.3,2.3,1.4l18.1,0.5c-9.4,13.4-15.8,29-18.3,46
		l-13.7-13.4c-0.6-0.6-1.4-0.8-2.2-0.6l-13.5,3.9c-0.7,0.2-1.4,0.2-2.1-0.1l-31.6-12.7c-1.9-0.8-5.6,1.2-7.2,3.3l-5.9,7.3
		c-1.3,2.5-0.3,6.8,1.4,7.6l44.9,21.7l-42.6,19.9c-3.3,1.5-5.2,5.6-3,9.4l4.4,5.1c2.9,3.1,6,5.4,9.7,3.9l31.6-11.9
		c0.7-0.3,1.4-0.3,2.2-0.1l12.2,3.5c0.9,0.3,1.9,0,2.6-0.6l13.1-12.4c2.9,16.8,9.8,32.3,19.6,45.4l-19.1,0.1c-0.8,0-1.6,0.5-2,1.2
		l-6.8,12.3c-0.4,0.6-0.9,1.1-1.6,1.4l-31.3,13.4c-1.9,0.8-3.1,4.8-2.7,7.4l1,9.4c0.8,2.7,4.6,5.1,6.4,4.4l47.1-16.4l-16,44.2
		c-1.2,3.4,0.3,7.7,4.6,8.8l6.7,0.5c4.2,0.2,8-0.4,9.6-4.1l13.9-30.8c0.3-0.7,0.8-1.2,1.5-1.6l11.1-6.2c0.8-0.5,1.3-1.3,1.4-2.3
		l0.5-18.1c13.4,9.4,29,15.8,46,18.3l-13.4,13.7c-0.6,0.6-0.8,1.4-0.6,2.2l3.9,13.5c0.2,0.7,0.2,1.5-0.1,2.1l-12.7,31.6
		c-0.8,1.9,1.2,5.6,3.3,7.2l7.3,5.9c2.5,1.3,6.8,0.3,7.6-1.4l21.7-44.9l19.9,42.6c1.5,3.3,5.6,5.2,9.4,3l5.1-4.4
		c3.1-2.9,5.4-6,3.9-9.7l-11.9-31.6c-0.3-0.7-0.3-1.4-0.1-2.2l3.5-12.2c0.3-0.9,0-1.9-0.6-2.6l-12.4-13.1
		c16.8-2.9,32.3-9.8,45.4-19.6l0.2,19.1c0,0.8,0.5,1.6,1.2,2l12.3,6.8c0.6,0.4,1.1,0.9,1.4,1.6l13.4,31.3c0.8,1.9,4.8,3.1,7.4,2.7
		l9.4-1c2.7-0.8,5.1-4.6,4.4-6.4L347,344.6l44.2,16c3.4,1.2,7.7-0.3,8.8-4.6l0.5-6.7c0.2-4.2-0.4-8-4.1-9.6l-30.8-13.9
		c-0.7-0.3-1.2-0.8-1.6-1.5l-6.2-11.1c-0.5-0.8-1.3-1.3-2.3-1.4l-18.1-0.5c9.4-13.4,15.8-29,18.3-46l13.7,13.4
		c0.6,0.6,1.4,0.8,2.2,0.6l13.5-3.9c0.7-0.2,1.4-0.2,2.1,0.1l31.6,12.7c1.9,0.8,5.6-1.2,7.2-3.3l5.9-7.3
		C433.2,275.1,432.2,270.8,430.5,270z M326.6,238.1h-22.7c-1.7-7.5-4.8-14.4-9.2-20.5l15.9-15.9C318.8,212,324.5,224.5,326.6,238.1z
		 M279.7,203.5c-6.2-4-13.3-6.8-21-8V173c13.8,1.5,26.4,6.7,37,14.4L279.7,203.5z M276.9,250c0,14.9-12,26.9-26.9,26.9
		c-14.9,0-26.9-12-26.9-26.9c0-14.9,12-26.9,26.9-26.9C264.9,223.1,276.9,235.1,276.9,250z M238.1,173.4v22.7
		c-7.5,1.7-14.4,4.8-20.5,9.2l-15.9-15.9C212,181.2,224.5,175.5,238.1,173.4z M203.5,220.3c-4,6.2-6.8,13.3-8,21H173
		c1.5-13.8,6.7-26.4,14.4-37L203.5,220.3z M173.4,261.9h22.7c1.7,7.5,4.8,14.4,9.2,20.5l-15.9,15.9
		C181.2,288,175.5,275.5,173.4,261.9z M220.3,296.5c6.2,4,13.3,6.8,21,8V327c-13.8-1.5-26.4-6.7-37-14.4L220.3,296.5z M261.9,326.6
		v-22.7c7.5-1.7,14.4-4.8,20.5-9.2l15.9,15.9C288,318.8,275.5,324.5,261.9,326.6z M296.5,279.7c4-6.2,6.8-13.3,8-21H327
		c-1.5,13.8-6.7,26.4-14.4,37L296.5,279.7z"/>
</g>
</svg>
